<?xml version="1.0" encoding="utf-8"?>
<!-- Generator: Adobe Illustrator 22.1.0, SVG Export Plug-In . SVG Version: 6.00 Build 0)  -->
<svg version="1.1" id="Layer_1" xmlns="http://www.w3.org/2000/svg"  x="0px" y="0px"
	 viewBox="0 0 800 509.6" style="enable-background:new 0 0 800 509.6;" xml:space="preserve">
<style type="text/css">
	.st0{fill:#FFFFFF;}
</style>
<g>
	<polygon class="st0" points="280.8,54.7 11.6,85.1 -0.2,158.3 98,146.9 49.9,425.6 130.9,416.2 179.2,137.5 267.1,127.2 	"/>
	<path class="st0" d="M403.8,137.9L332,312.1l-38.2-161.4l-77.1,8.9c0,0,50.1,202.1,60.9,239.1c0,0-28.5,73.1-45.5,110.9l88.3-10.3
		c0,0,3.1-6.9,8.1-18.1c23.2-51.3,22.9-49.1,23.1-50.7c0.1-0.6,0.3-1.1,0.5-1.6l134.3-300.6L403.8,137.9z"/>
	<polygon class="st0" points="465.8,377.8 542.2,369.1 602.8,18.1 524.8,27.2 	"/>
	<polygon class="st0" points="789.9,150.1 800,92.3 739.3,99 756.4,0 683.2,8.4 665,108 626,112.5 616.1,170.3 655,166.1 
		622.4,359.6 622.6,359.6 622.6,359.8 622.7,359.6 646.6,356.8 693.1,351.5 696.9,351.1 756.9,343.8 767,286.3 706.7,292.9 
		729,156.8 	"/>
</g>
</svg>
